<svg xmlns="http://www.w3.org/2000/svg" xml:lang="en" height="141.0pt" width="173.16799999999998pt" viewBox="-51.56799999999999 -136.4 173.16799999999998 141.0" style="background-color:black;"><circle cx="3.3065463576978533e-15" cy="-54.0" r="18.0" style="stroke:white;fill:none;stroke-width:2.0;" /><path d="M 0.0,-0.0 L 2.204364238465236e-15,-36.0 L 2.204364238465236e-15,-36.0 M 4.408728476930472e-15,-72.0 L 4.408728476930472e-15,-72.0 L 6.613092715395707e-15,-108.0" style="stroke:white;fill:none;stroke-width:2.0;stroke-linecap:round;stroke-linejoin:round;" /><path d="M 9.000000000000004,-54.0 L 8.250000000000004,-55.86349712473816 L 7.500000000000004,-57.6 L 6.7500000000000036,-59.091168824543146 L 6.000000000000004,-60.23538290724795 L 5.250000000000004,-60.95466594928129 L 4.5000000000000036,-61.199999999999996 L 3.750000000000004,-60.9546659492813 L 3.000000000000004,-60.23538290724795 L 2.2500000000000036,-59.09116882454314 L 1.5000000000000042,-57.6 L 0.7500000000000037,-55.863497124738146 L 3.3065463576978533e-15,-54.0 L -0.7499999999999961,-52.136502875261854 L -1.4999999999999956,-50.400000000000006 L -2.249999999999997,-48.908831175456854 L -2.9999999999999964,-47.76461709275205 L -3.7499999999999956,-47.04533405071871 L -4.499999999999997,-46.800000000000004 L -5.2499999999999964,-47.0453340507187 L -5.999999999999996,-47.76461709275205 L -6.749999999999997,-48.908831175456854 L -7.4999999999999964,-50.4 L -8.249999999999996,-52.136502875261854 L -8.999999999999996,-54.0" style="stroke:white;fill:none;stroke-width:2.0;stroke-linecap:round;stroke-linejoin:round;" /><path d="M 6.613092715395707e-15,-108.0 L 36.00000000000001,-108.0 L 39.00000000000001,-117.0 L 45.00000000000001,-99.0 L 51.0,-117.0 L 57.00000000000001,-99.0 L 63.00000000000001,-117.0 L 69.0,-99.0 L 72.0,-108.0 L 108.0,-108.0" style="stroke:white;fill:none;stroke-width:2.0;stroke-linecap:round;stroke-linejoin:round;" /><path d="M 108.0,-108.0 L 107.99999999999999,-57.24 M 116.99999999999999,-57.24 L 98.99999999999999,-57.24 M 116.99999999999999,-50.760000000000005 L 98.99999999999999,-50.760000000000005 M 107.99999999999999,-50.760000000000005 L 107.99999999999999,-0.0" style="stroke:white;fill:none;stroke-width:2.0;stroke-linecap:round;stroke-linejoin:round;" /><path d="M 107.99999999999999,-0.0 L 53.999999999999986,-6.613092715395707e-15 L -1.5987211554602254e-14,-1.3226185430791413e-14" style="stroke:white;fill:none;stroke-width:2.0;stroke-linecap:round;stroke-linejoin:round;" /><text x="-21.599999999999994" y="-59.6" fill="white" font-size="14.0" font-family="sans" text-anchor="end"><tspan x="-21.599999999999994" dy="14.0">10V</tspan></text><text x="54.00000000000001" y="-131.8" fill="white" font-size="14.0" font-family="sans" text-anchor="middle"><tspan x="54.00000000000001" dy="14.0">R1</tspan></text><text x="95.39999999999999" y="-59.6" fill="white" font-size="14.0" font-family="sans" text-anchor="end"><tspan x="95.39999999999999" dy="14.0">10uF</tspan></text></svg>